<svg width="38" height="44" viewBox="0 0 38 44" fill="none" xmlns="http://www.w3.org/2000/svg">
<path d="M30.8867 42.2347C28.4915 44.5566 25.8763 44.19 23.3588 43.0901C20.6947 41.9658 18.2506 41.9169 15.4398 43.0901C11.9202 44.6055 10.0627 44.1655 7.96074 42.2347C-3.96664 29.9407 -2.20686 11.2186 11.3337 10.5342C14.6332 10.7053 16.9307 12.3429 18.8616 12.4895C21.7457 11.9029 24.5075 10.2165 27.5872 10.4365C31.2778 10.7298 34.0641 12.1962 35.8972 14.8359C28.2715 19.4064 30.0802 29.4518 37.0704 32.2626C35.6772 35.9288 33.8686 39.5706 30.8623 42.2591L30.8867 42.2347ZM18.6172 10.3876C18.2506 4.93715 22.6744 0.439944 27.7582 0C28.467 6.30587 22.039 10.9986 18.6172 10.3876Z" fill="white"/>
</svg>
