<svg width="1336" height="526" viewBox="0 0 1336 526" fill="none" xmlns="http://www.w3.org/2000/svg">
<rect width="1336" height="526" rx="20" fill="url(#paint0_linear_811_1748)"/>
<g opacity="0.3">
<mask id="mask0_811_1748" style="mask-type:alpha" maskUnits="userSpaceOnUse" x="0" y="0" width="1336" height="526">
<rect width="1336" height="526" rx="20" fill="url(#paint1_linear_811_1748)"/>
</mask>
<g mask="url(#mask0_811_1748)">
<path opacity="0.71" d="M1222.7 182.826V127.964H1126.51V69H1002.84V218.48H974.113V253.452H951.625V337.103H925.387V221.901H860.428V188.304H823.575V242.132L789.226 260.987V369.324H708.021V131.397H620.573V175.961H551.864L533.126 186.247V210.933H446.936L430.69 219.844V303.506H394.461V174.598H327.009V197.227H220.2V251.736L200.839 262.362V315.908H168.63V183.767L124.912 174.163V138.509H7.47699V289.364H-3.03223V610.918H91.3391H168.63H387.372V610.542L1258.31 609.978V202.364L1222.7 182.826Z" fill="#2A0EA6"/>
<path d="M1192.19 222.677L1174.48 242.132V301.801H1155.6V138.356H1071.22V519.074L1045.86 491.179V271.967H858.218V327.745H759.098V502.852V579.955H672.014V352.232H646.823V263.632H595.182V410.373H571.26V438.069L541.037 385.464H488.138V195.804H386.126L377.31 205.502V263.632V328.697H348.345V155.66H261.45V184.731L244.44 203.422V498.279H224.926V261.563H213.582V238.723H113.463L96.4644 257.413V283.71H2.01079L-3.03223 619.405H311.821V618.712H631.706V619.405H759.098H942.785H1267.71V222.677H1192.19Z" fill="#3B31BC"/>
<path d="M1267.2 247.081V483.632H1236.67V389.484L1193.42 352.808V210.404H1138.72L1106.92 183.426H1066.22V326.911H968.271V489.827H942.821V262.186L871.596 293.467V429.405H852.517V220.114H828.348V158.622H804.179V144.586H793.999V156.459H734.212V203.927H678.245L664.244 220.114V414.299H616.553V374.931L586.66 349.575V256.791H482.355V333.388H444.186V398.124L398.399 441.278H369.14V236.289L287.735 188.821V378.704H268.644V248.162H171.969V293.467H127.451V510.316H108.373V416.462H43.4953V387.333L32.0457 373.309H-37.91L-43 751.981H1164.36H1236.67H1267.2H1350V247.081H1267.2Z" fill="#2A0EA6"/>
</g>
</g>
<defs>
<linearGradient id="paint0_linear_811_1748" x1="668" y1="0" x2="668" y2="526" gradientUnits="userSpaceOnUse">
<stop stop-color="#DBD3FF"/>
<stop offset="0.374881" stop-color="#270AAD" stop-opacity="0.6"/>
<stop offset="0.687336" stop-color="#270AAD" stop-opacity="0.8"/>
<stop offset="1" stop-color="#270AAD"/>
</linearGradient>
<linearGradient id="paint1_linear_811_1748" x1="668" y1="0" x2="668" y2="526" gradientUnits="userSpaceOnUse">
<stop stop-color="#DBD3FF"/>
<stop offset="0.374881" stop-color="#270AAD" stop-opacity="0.6"/>
<stop offset="0.687336" stop-color="#270AAD" stop-opacity="0.8"/>
<stop offset="1" stop-color="#270AAD"/>
</linearGradient>
</defs>
</svg>
