<svg width="234" height="50" viewBox="0 0 234 50" fill="none" xmlns="http://www.w3.org/2000/svg">
<path d="M40.1383 21.5382C39.4683 21.4784 38.7934 21.5647 38.1596 21.7913C37.8747 21.9029 37.6017 22.0432 37.3447 22.2098L31.6434 25.409L31.2343 25.6486C28.4038 27.3224 25.5677 28.9917 22.726 30.6565C21.8408 31.2121 20.9095 31.6897 19.9425 32.0839C18.9051 32.4448 17.8059 32.591 16.711 32.5139C15.616 32.4368 14.5478 32.1379 13.5705 31.6351C12.1891 30.9295 11.0275 29.8545 10.2135 28.5281C9.39942 27.2018 8.96428 25.6754 8.95584 24.1165C8.94607 22.3031 9.5281 20.5366 10.6126 19.0883C11.6757 17.7385 13.1949 16.8442 14.6604 15.9836L21.4818 11.9915L26.177 9.23779L35.2319 3.90254C35.6219 4.18423 36.0948 4.32572 36.5745 4.30426C37.0541 4.28281 37.5126 4.09963 37.8763 3.78423C38.24 3.46882 38.4877 3.03953 38.5796 2.56534C38.6714 2.09115 38.6021 1.59965 38.3828 1.16989C38.1635 0.740124 37.8069 0.397061 37.3704 0.195896C36.9339 -0.00526864 36.4428 -0.0528632 35.9761 0.0607797C35.5095 0.174423 35.0944 0.442708 34.7976 0.822458C34.5008 1.20221 34.3396 1.67135 34.3398 2.15447C34.3398 2.23208 34.3398 2.30634 34.3398 2.38058L24.3291 8.28616L11.3772 15.9263L10.1699 14.239L21.787 7.37837L27.6895 3.8924C28.0779 4.17755 28.5505 4.32273 29.031 4.30451C29.5115 4.28629 29.9719 4.10574 30.338 3.79197C30.704 3.47821 30.9543 3.04952 31.0486 2.57506C31.1428 2.1006 31.0755 1.60801 30.8575 1.17677C30.6395 0.745521 30.2834 0.400737 29.8468 0.198038C29.4102 -0.00466042 28.9185 -0.0534602 28.4509 0.0595027C27.9834 0.172466 27.5672 0.44061 27.2697 0.820687C26.9721 1.20076 26.8105 1.67062 26.8108 2.15447C26.8089 2.29502 26.8224 2.43534 26.8511 2.57292L19.2449 6.89582L15.0495 9.27828L14.0031 7.37837L14.7309 6.97681L19.0906 4.57746C19.4741 4.87303 19.9456 5.02936 20.4285 5.02104C20.9114 5.01272 21.3774 4.84022 21.7505 4.53161C22.1236 4.223 22.382 3.79643 22.4836 3.32129C22.5852 2.84615 22.5241 2.35037 22.3102 1.91464C22.0962 1.4789 21.742 1.12884 21.3053 0.921365C20.8685 0.71389 20.3748 0.661204 19.9045 0.771913C19.4342 0.882622 19.0149 1.15021 18.715 1.53112C18.415 1.91203 18.2519 2.38387 18.2522 2.86988C18.2514 3.11634 18.2946 3.36095 18.3797 3.59206L9.34822 8.73835L8.3656 9.29517L8.33206 9.31877C6.39425 10.4949 4.70564 12.0436 3.36263 13.8764C2.01963 15.7093 1.04854 17.7903 0.504805 20.0008C-0.0389303 22.2112 -0.144658 24.5078 0.193652 26.7594C0.531962 29.011 1.30768 31.1734 2.47653 33.1233C4.83713 37.0614 8.65572 39.8945 13.0922 40.9994C15.289 41.5466 17.5713 41.653 19.8089 41.3126C22.0465 40.9721 24.1956 40.1916 26.1334 39.0154L36.409 33.2482L41.9963 29.9478L42.4456 29.6812C43.0529 29.2777 43.5512 28.7289 43.8959 28.084C44.2407 27.4391 44.4211 26.7183 44.421 25.986C44.421 23.5597 42.4155 21.8217 40.1383 21.5382ZM36.4727 0.760749C36.7468 0.760081 37.0149 0.841253 37.2432 0.99399C37.4714 1.14673 37.6494 1.36417 37.7548 1.61878C37.8601 1.87339 37.888 2.15371 37.835 2.42429C37.7819 2.69487 37.6502 2.94351 37.4567 3.13876C37.2631 3.33401 37.0163 3.46711 36.7475 3.52116C36.4788 3.57521 36.2001 3.54779 35.9468 3.4424C35.6936 3.33701 35.477 3.15839 35.3247 2.92912C35.1724 2.69985 35.091 2.43026 35.091 2.15447C35.091 1.78542 35.2365 1.43141 35.4955 1.17014C35.7545 0.90886 36.106 0.761643 36.4727 0.760749ZM28.9572 0.760749C29.2312 0.760081 29.4994 0.841253 29.7276 0.99399C29.9558 1.14673 30.1338 1.36417 30.2392 1.61878C30.3445 1.87339 30.3724 2.15371 30.3194 2.42429C30.2663 2.69487 30.1347 2.94351 29.9411 3.13876C29.7475 3.33401 29.5007 3.46711 29.232 3.52116C28.9632 3.57521 28.6845 3.54779 28.4312 3.4424C28.178 3.33701 27.9614 3.15839 27.8091 2.92912C27.6568 2.69985 27.5754 2.43026 27.5754 2.15447C27.5763 1.78569 27.7221 1.43221 27.9809 1.17112C28.2397 0.910041 28.5907 0.76253 28.9572 0.760749ZM20.4086 1.47617C20.6827 1.4755 20.9508 1.55667 21.1791 1.70941C21.4073 1.86214 21.5853 2.07959 21.6907 2.3342C21.796 2.58881 21.8239 2.86913 21.7709 3.13971C21.7178 3.41028 21.5861 3.65892 21.3926 3.85418C21.199 4.04943 20.9522 4.18253 20.6834 4.23658C20.4147 4.29063 20.136 4.2632 19.8827 4.15782C19.6294 4.05243 19.4129 3.87381 19.2606 3.64454C19.1082 3.41527 19.0269 3.14568 19.0269 2.86988C19.0269 2.50083 19.1724 2.14683 19.4314 1.88555C19.6904 1.62428 20.0419 1.47706 20.4086 1.47617ZM40.0042 8.29963C37.1357 8.29538 34.3119 9.01475 31.791 10.3919L31.4255 10.5978L20.8916 16.5371L15.3111 19.8375L14.855 20.104C13.9266 20.7374 13.2721 21.702 13.0238 22.8026C12.7754 23.9032 12.9519 25.0576 13.5173 26.0323C14.0828 27.0069 14.9952 27.7291 16.0697 28.0525C17.1442 28.376 18.3008 28.2766 19.3053 27.7746L19.7983 27.4877L25.6672 24.022C29.145 21.9736 32.6496 19.4123 36.399 17.9038C37.2581 17.5377 38.1692 17.3099 39.0987 17.2289C43.6999 16.9353 48.3649 21.022 48.3649 25.6654C48.3623 27.436 47.8061 29.1609 46.7752 30.5958C45.4338 32.472 43.2505 33.4507 41.3155 34.5879L36.4962 37.4192L31.1807 40.5441L21.948 45.9705C21.6297 45.79 21.2703 45.6959 20.905 45.6972C20.3381 45.6981 19.7947 45.9253 19.3942 46.329C18.9937 46.7326 18.7687 47.2797 18.7687 47.8502C18.7679 48.0966 18.811 48.3412 18.8961 48.5723C19.031 48.9644 19.2784 49.3073 19.6071 49.5577C19.9239 49.8009 20.302 49.9503 20.6986 49.989C21.0953 50.0277 21.4948 49.9541 21.8521 49.7766C22.2095 49.5991 22.5104 49.3247 22.7211 48.9843C22.9318 48.644 23.0439 48.2512 23.0446 47.8502C23.0445 47.6971 23.0287 47.5444 22.9977 47.3946L32.995 41.4957L45.9502 33.8556L47.1542 35.5429L35.5371 42.4035L29.4569 45.9975C29.1285 45.7999 28.7529 45.6961 28.3703 45.6972C28.0894 45.6972 27.8114 45.7529 27.552 45.8611C27.2926 45.9694 27.0569 46.128 26.8585 46.328C26.6601 46.5279 26.5028 46.7653 26.3956 47.0265C26.2885 47.2877 26.2335 47.5676 26.234 47.8502C26.2332 48.0966 26.2763 48.3412 26.3614 48.5723C26.5305 49.0495 26.8617 49.4513 27.2964 49.7067C27.7312 49.9622 28.2417 50.0549 28.7378 49.9685C29.2339 49.8822 29.6837 49.6223 30.008 49.2347C30.3322 48.8471 30.51 48.3568 30.5099 47.8502C30.5109 47.642 30.4804 47.4349 30.4194 47.236L38.0657 42.8591L42.2679 40.4766L43.3142 42.3765L42.5831 42.7781L38.2066 45.1775C37.8444 44.9119 37.4072 44.7701 36.959 44.7725C36.6784 44.7725 36.4005 44.8282 36.1412 44.9365C35.882 45.0448 35.6466 45.2035 35.4484 45.4035C35.2503 45.6035 35.0933 45.8409 34.9865 46.1021C34.8797 46.3633 34.8252 46.6431 34.8261 46.9255C34.8283 47.2554 34.9049 47.5805 35.0502 47.8763C35.1954 48.1721 35.4055 48.4308 35.6645 48.6331C36.0353 48.9209 36.4907 49.0765 36.959 49.0752C37.24 49.0756 37.5183 49.0204 37.7781 48.9126C38.0379 48.8048 38.274 48.6466 38.473 48.447C38.672 48.2473 38.8299 48.0102 38.9379 47.7492C39.0458 47.4881 39.1016 47.2083 39.102 46.9255C39.102 46.6587 39.0519 46.3942 38.9545 46.146L47.9524 41.0166L48.935 40.4598L48.9753 40.4361C52.1817 38.4672 54.6607 35.4977 56.0348 31.9799C57.4089 28.4621 57.6028 24.5888 56.5869 20.9499C55.5709 17.311 53.4009 14.1059 50.4073 11.8228C47.4137 9.53973 43.7605 8.30369 40.0042 8.30301V8.29963ZM20.8882 49.2101C20.6141 49.2101 20.3462 49.1283 20.1184 48.975C19.8905 48.8217 19.713 48.6039 19.6083 48.349C19.5035 48.0941 19.4763 47.8137 19.53 47.5433C19.5837 47.2728 19.716 47.0245 19.91 46.8297C20.1041 46.6349 20.3512 46.5025 20.6201 46.4491C20.889 46.3957 21.1676 46.4237 21.4206 46.5297C21.6736 46.6357 21.8897 46.8149 22.0415 47.0446C22.1933 47.2742 22.2739 47.544 22.2733 47.8198C22.2724 48.1882 22.1265 48.5414 21.8676 48.8019C21.6087 49.0625 21.2577 49.2092 20.8916 49.2101H20.8882ZM28.3535 49.2101C28.0794 49.2101 27.8115 49.1283 27.5836 48.975C27.3558 48.8217 27.1783 48.6039 27.0735 48.349C26.9688 48.0941 26.9416 47.8137 26.9953 47.5433C27.049 47.2728 27.1813 47.0245 27.3753 46.8297C27.5693 46.6349 27.8165 46.5025 28.0853 46.4491C28.3542 46.3957 28.6328 46.4237 28.8859 46.5297C29.1389 46.6357 29.355 46.8149 29.5068 47.0446C29.6586 47.2742 29.7392 47.544 29.7386 47.8198C29.7377 48.1882 29.5918 48.5414 29.3329 48.8019C29.074 49.0625 28.723 49.2092 28.3569 49.2101H28.3535ZM36.9557 48.3125C36.6817 48.3118 36.4141 48.2294 36.1867 48.0757C35.9593 47.922 35.7823 47.7039 35.6781 47.449C35.5739 47.1941 35.5471 46.9138 35.6012 46.6436C35.6553 46.3733 35.7878 46.1253 35.982 45.9309C36.1762 45.7364 36.4233 45.6043 36.6921 45.5512C36.9609 45.4981 37.2393 45.5263 37.4922 45.6325C37.745 45.7386 37.9609 45.9177 38.1125 46.1473C38.2642 46.3768 38.3448 46.6465 38.3441 46.9222C38.3441 47.105 38.3082 47.2861 38.2386 47.455C38.1689 47.6239 38.0669 47.7773 37.9382 47.9064C37.8096 48.0356 37.6568 48.1379 37.4888 48.2076C37.3208 48.2773 37.1408 48.3129 36.959 48.3125H36.9557Z" fill="url(#paint0_linear_54_633)"/>
<path d="M77.8668 17.0564V18.7755H73.2549V33.3525H71.7087V18.7223H66.8675V17.0597L77.8668 17.0564ZM93.7639 33.3492H91.9617L87.5726 26.7523H84.5302V33.3492H82.8676V17.2027H88.2177C90.9442 17.2027 93.96 19.0514 93.4912 22.1903C92.8528 26.4364 89.3482 26.7722 89.3482 26.7722L93.7639 33.3492ZM89.0223 25.4256C89.0223 25.4256 92.0681 25.1729 92.0681 21.9476C92.0681 18.7223 89.0589 18.4662 89.0589 18.4662H84.4204V25.4256H89.0223ZM103.194 26.8188L103.21 33.3525H104.843V26.7889L109.914 17.5419L108.354 17.4288L103.952 25.7415L99.2735 17.2094H97.8936L103.194 26.8188ZM122.226 21.6383H126.04C126.04 21.6383 126.216 17.9309 122.406 17.1994C118.595 16.4679 115.35 17.3989 114.319 20.5245C113.289 23.65 115.53 25.3325 117.275 26.0108C119.021 26.6891 122.689 27.0415 122.439 28.7174C122.19 30.3932 121.551 30.5329 120.444 30.606C119.337 30.6792 118.236 30.463 118.023 28.6808L114.057 28.7872C114.057 28.7872 114.496 33.419 119.377 33.705C124.258 33.9909 125.967 31.3774 126.29 30.6393C126.612 29.9011 127.32 26.2236 123.546 24.6907C119.772 23.1579 117.844 23.1246 118.06 21.1994C118.276 19.2742 121.884 18.955 122.226 21.6383ZM130.349 16.9666L134.838 33.7349H139.613L142.463 22.8487L145.169 33.7349H150.014L154.36 16.9666H150.014L147.663 28.9767L144.67 16.9666H140.112L137.332 29.1197L134.908 16.9666H130.349ZM165.522 18.3465V32.355C165.522 32.721 165.377 33.0719 165.118 33.3307C164.859 33.5895 164.508 33.7349 164.142 33.7349H160.371C160.19 33.7353 160.01 33.6999 159.842 33.6308C159.675 33.5616 159.522 33.4601 159.394 33.3319C159.265 33.2037 159.163 33.0515 159.094 32.8838C159.024 32.7162 158.988 32.5365 158.988 32.355V18.3465C158.988 17.9797 159.134 17.6279 159.393 17.3685C159.653 17.1091 160.005 16.9633 160.371 16.9633H164.152C164.517 16.9659 164.866 17.1129 165.122 17.3722C165.379 17.6314 165.523 17.9817 165.522 18.3465ZM164.857 20.4912C164.857 19.9782 164.705 19.4768 164.42 19.0503C164.135 18.6238 163.73 18.2914 163.256 18.0951C162.782 17.8988 162.26 17.8474 161.757 17.9475C161.254 18.0475 160.792 18.2946 160.429 18.6573C160.067 19.02 159.82 19.4821 159.72 19.9852C159.62 20.4883 159.671 21.0098 159.867 21.4837C160.064 21.9576 160.396 22.3627 160.822 22.6476C161.249 22.9326 161.75 23.0847 162.263 23.0847C162.949 23.0812 163.605 22.8064 164.089 22.3204C164.572 21.8344 164.844 21.1767 164.844 20.4912H164.857ZM168.594 16.9633V20.4945H173.007V33.7349H176.997V20.4945H181.522V16.9633H168.594ZM196.917 22.7024L193.416 30.1937C191.185 30.1937 189.376 28.0524 189.376 25.409C189.376 22.7655 191.185 20.6275 193.416 20.6275C194.104 20.6485 194.774 20.8512 195.358 21.2151C195.942 21.5789 196.419 22.0909 196.741 22.699H201.665C201.057 20.7683 199.779 19.1185 198.061 18.0475C196.344 16.9765 194.3 16.5548 192.298 16.8585C190.297 17.1623 188.47 18.1715 187.148 19.7039C185.825 21.2363 185.094 23.191 185.086 25.2152C185.078 27.2394 185.794 29.1998 187.105 30.7424C188.416 32.285 190.235 33.3082 192.234 33.6274C194.232 33.9466 196.28 33.5407 198.005 32.483C199.731 31.4253 201.022 29.7855 201.645 27.8595H196.871C196.166 29.2594 194.876 30.1937 193.403 30.1937L196.917 22.7024ZM216.565 16.9633V23.6134H210.453V16.9633H206.131V33.7349H210.453V26.729H216.565V33.7349H220.887V16.9633H216.565Z" fill="url(#paint1_linear_54_633)"/>
<path d="M228.944 16.2651C228.089 16.2651 227.253 16.5186 226.542 16.9936C225.832 17.4685 225.277 18.1436 224.95 18.9335C224.623 19.7233 224.538 20.5924 224.704 21.4309C224.871 22.2694 225.283 23.0396 225.887 23.6442C226.492 24.2487 227.262 24.6604 228.101 24.8272C228.939 24.994 229.808 24.9083 230.598 24.5812C231.388 24.254 232.063 23.7 232.538 22.9891C233.013 22.2783 233.266 21.4426 233.266 20.5876C233.265 19.4416 232.809 18.3428 231.999 17.5325C231.189 16.7221 230.09 16.2663 228.944 16.2651ZM228.944 24.2452C228.22 24.2452 227.513 24.0307 226.912 23.6288C226.31 23.2269 225.842 22.6557 225.565 21.9873C225.288 21.319 225.215 20.5836 225.357 19.8741C225.498 19.1646 225.846 18.5129 226.358 18.0014C226.869 17.4898 227.521 17.1415 228.23 17.0004C228.94 16.8592 229.675 16.9317 230.344 17.2085C231.012 17.4853 231.583 17.9541 231.985 18.5556C232.387 19.1571 232.601 19.8643 232.601 20.5876C232.6 21.5574 232.215 22.487 231.529 23.1727C230.843 23.8584 229.914 24.2441 228.944 24.2452ZM228.279 19.5901C228.279 19.6783 228.244 19.7629 228.181 19.8252C228.119 19.8876 228.035 19.9226 227.946 19.9226H227.614V21.5852C227.614 21.6734 227.579 21.7579 227.516 21.8203C227.454 21.8826 227.37 21.9177 227.281 21.9177C227.193 21.9177 227.109 21.8826 227.046 21.8203C226.984 21.7579 226.949 21.6734 226.949 21.5852V19.9226H226.616C226.528 19.9226 226.444 19.8876 226.381 19.8252C226.319 19.7629 226.284 19.6783 226.284 19.5901C226.284 19.5019 226.319 19.4174 226.381 19.355C226.444 19.2927 226.528 19.2576 226.616 19.2576H227.946C228.035 19.2576 228.119 19.2927 228.181 19.355C228.244 19.4174 228.279 19.5019 228.279 19.5901ZM231.604 19.5901V21.5852C231.604 21.6734 231.569 21.7579 231.507 21.8203C231.444 21.8826 231.36 21.9177 231.271 21.9177C231.183 21.9177 231.099 21.8826 231.036 21.8203C230.974 21.7579 230.939 21.6734 230.939 21.5852V20.475L230.357 21.14C230.326 21.1754 230.287 21.2037 230.244 21.2231C230.201 21.2426 230.155 21.2526 230.108 21.2526C230.06 21.2526 230.014 21.2426 229.971 21.2231C229.928 21.2037 229.889 21.1754 229.858 21.14L229.276 20.475V21.5852C229.276 21.6734 229.241 21.7579 229.179 21.8203C229.117 21.8826 229.032 21.9177 228.944 21.9177C228.856 21.9177 228.771 21.8826 228.709 21.8203C228.646 21.7579 228.611 21.6734 228.611 21.5852V19.5901C228.612 19.5227 228.632 19.4569 228.671 19.4014C228.709 19.346 228.764 19.3036 228.827 19.2798C228.89 19.2561 228.959 19.2521 229.024 19.2684C229.09 19.2847 229.149 19.3205 229.193 19.3711L230.108 20.4152L231.022 19.3711C231.067 19.3205 231.126 19.2847 231.191 19.2684C231.257 19.2521 231.325 19.2561 231.389 19.2798C231.452 19.3036 231.506 19.346 231.545 19.4014C231.583 19.4569 231.604 19.5227 231.604 19.5901Z" fill="#0301C9"/>
<defs>
<linearGradient id="paint0_linear_54_633" x1="0" y1="25" x2="57.2289" y2="25" gradientUnits="userSpaceOnUse">
<stop stop-color="#F3430A"/>
<stop offset="1" stop-color="#0702C8"/>
</linearGradient>
<linearGradient id="paint1_linear_54_633" x1="66.8675" y1="25.2487" x2="220.887" y2="25.2487" gradientUnits="userSpaceOnUse">
<stop stop-color="#F3430A"/>
<stop offset="1" stop-color="#0201CB"/>
</linearGradient>
</defs>
</svg>
