<svg width="44" height="44" viewBox="0 0 44 44" fill="none" xmlns="http://www.w3.org/2000/svg">
<g clip-path="url(#clip0_1546_1789)">
<path d="M31.8358 15.0926C26.7244 12.2337 18.5205 7.64298 5.7955 0.517973C4.93758 -0.0486145 3.9505 -0.122865 3.09766 0.1658L24.9301 21.9983L31.8358 15.0926Z" fill="#32BBFF"/>
<path d="M3.098 0.165771C2.93815 0.219912 2.78261 0.285225 2.63385 0.364116C1.69206 0.873554 1 1.85385 1 3.09367V40.9028C1 42.1426 1.69197 43.1229 2.63385 43.6323C2.78235 43.7111 2.93781 43.7766 3.09748 43.8311L24.9305 21.9982L3.098 0.165771Z" fill="#32BBFF"/>
<path d="M24.9306 21.9983L3.09766 43.8312C3.95076 44.122 4.93784 44.0534 5.79601 43.4786C18.1365 36.5683 26.248 32.032 31.4185 29.1488C31.5624 29.068 31.7035 28.9889 31.8429 28.9106L24.9306 21.9983Z" fill="#32BBFF"/>
<path d="M2.02344 21.9984V40.9029C2.02344 42.1427 2.71541 43.123 3.65728 43.6324C3.80578 43.7112 3.96125 43.7768 4.12092 43.8312L25.9539 21.9984H2.02344Z" fill="#2C9FD9"/>
<path d="M6.81922 0.518024C5.80043 -0.154696 4.59902 -0.135531 3.65723 0.364282L25.6225 22.3296L32.8595 15.0926C27.7481 12.2337 19.5442 7.64303 6.81922 0.518024Z" fill="#29CC5E"/>
<path d="M25.6226 21.6671L3.65723 43.6324C4.5991 44.1321 5.80043 44.161 6.81922 43.4786C19.1597 36.5684 27.2712 32.0321 32.4417 29.1488C32.5856 29.068 32.7267 28.9889 32.8661 28.9106L25.6226 21.6671Z" fill="#D93F21"/>
<path d="M41.9765 21.9983C41.9765 20.9507 41.4479 19.8935 40.4003 19.3073C40.4003 19.3073 38.441 18.2141 32.4354 14.8549L25.292 21.9983L32.4423 29.1488C38.382 25.8138 40.4002 24.6893 40.4002 24.6893C41.4479 24.1031 41.9765 23.0459 41.9765 21.9983Z" fill="#FFD500"/>
<path d="M40.4003 24.6894C41.4479 24.1031 41.9765 23.0459 41.9765 21.9984H25.292L32.4423 29.1488C38.3821 25.8139 40.4003 24.6894 40.4003 24.6894Z" fill="#FFAA00"/>
</g>
<defs>
<clipPath id="clip0_1546_1789">
<rect width="44" height="44" fill="white"/>
</clipPath>
</defs>
</svg>
