<svg width="24" height="24" viewBox="0 0 24 24" fill="none" xmlns="http://www.w3.org/2000/svg">
<path d="M19.5229 21.99H4.48785C2.98485 21.99 1.82485 20.856 2.02185 19.366L2.13585 18.497C2.34285 17.297 3.44085 16.542 4.63285 16.283L11.9279 15H12.0719L19.3669 16.283C20.5789 16.563 21.6569 17.276 21.8639 18.497L21.9779 19.377C22.1749 20.867 21.0149 22 19.5119 22L19.5229 21.99ZM16.9999 7C16.9999 8.32608 16.4731 9.59785 15.5354 10.5355C14.5977 11.4732 13.3259 12 11.9999 12C10.6738 12 9.402 11.4732 8.46432 10.5355C7.52664 9.59785 6.99985 8.32608 6.99985 7C6.99985 5.67392 7.52664 4.40215 8.46432 3.46447C9.402 2.52678 10.6738 2 11.9999 2C13.3259 2 14.5977 2.52678 15.5354 3.46447C16.4731 4.40215 16.9999 5.67392 16.9999 7Z" stroke="#555555" stroke-width="1.5" stroke-linecap="round" stroke-linejoin="round"/>
</svg>
