<svg width="105" height="105" viewBox="0 0 105 105" fill="none" xmlns="http://www.w3.org/2000/svg">
<circle cx="52.0651" cy="52.8063" r="52.0651" fill="url(#paint0_linear_886_769)"/>
<mask id="mask0_886_769" style="mask-type:alpha" maskUnits="userSpaceOnUse" x="0" y="0" width="105" height="105">
<circle cx="52.4381" cy="52.8063" r="52.0651" fill="url(#paint1_linear_886_769)"/>
</mask>
<g mask="url(#mask0_886_769)">
<path d="M128.576 87.5164L72.9656 30.0396L55.9838 61.5772L41.2414 77.8125H30.791L81.923 122.786L128.576 87.5164Z" fill="black" fill-opacity="0.2" style="mix-blend-mode:multiply"/>
</g>
<path d="M74.2246 78.1296L74.2722 32.3292C74.2722 31.9156 74.1903 31.506 74.0312 31.1242C73.8721 30.7424 73.6389 30.3959 73.3452 30.1047C73.0515 29.8135 72.703 29.5834 72.3198 29.4276C71.9366 29.2718 71.5264 29.1934 71.1128 29.197L33.4519 29.1426C33.0388 29.14 32.6292 29.2187 32.2466 29.3743C31.8639 29.5299 31.5156 29.7594 31.2216 30.0496C30.9276 30.3398 30.6936 30.6851 30.533 31.0657C30.3725 31.4464 30.2885 31.8549 30.2858 32.268L30.2314 78.1296H74.2246Z" fill="white"/>
<path d="M71.1674 78.1298L71.2082 38.7228C71.2082 38.002 70.9218 37.3108 70.4122 36.8011C69.9025 36.2914 69.2112 36.0051 68.4904 36.0051L36.068 35.9575C35.3472 35.9575 34.6559 36.2439 34.1463 36.7535C33.6366 37.2632 33.3503 37.9545 33.3503 38.6752L33.2959 78.1298H71.1674Z" fill="#F2F2F2"/>
<path d="M74.2579 43.4583V32.3292C74.258 31.9156 74.176 31.506 74.0169 31.1242C73.8578 30.7424 73.6247 30.3959 73.331 30.1047C73.0372 29.8135 72.6887 29.5834 72.3056 29.4276C71.9224 29.2718 71.5122 29.1934 71.0986 29.197L33.4513 29.1426C33.0382 29.14 32.6286 29.2187 32.2459 29.3743C31.8632 29.5299 31.5149 29.7594 31.2209 30.0496C30.9269 30.3398 30.693 30.6851 30.5324 31.0657C30.3718 31.4464 30.2878 31.8549 30.2852 32.268V43.3971L74.2579 43.4583Z" fill="#F54208"/>
<g style="mix-blend-mode:multiply">
<path d="M30.2717 39.7445L30.2666 43.3931L74.2597 43.4545L74.2648 39.806L30.2717 39.7445Z" fill="#FFC2AE"/>
</g>
<path d="M43.6713 34.7141C43.6726 35.1971 43.5305 35.6696 43.263 36.0718C42.9955 36.4739 42.6147 36.7876 42.1687 36.9731C41.7227 37.1585 41.2317 37.2074 40.7579 37.1135C40.2842 37.0196 39.8489 36.7872 39.5074 36.4456C39.1659 36.1041 38.9334 35.6689 38.8395 35.1951C38.7456 34.7213 38.7945 34.2303 38.9799 33.7843C39.1654 33.3384 39.4791 32.9575 39.8812 32.69C40.2834 32.4225 40.7559 32.2804 41.2389 32.2817C41.884 32.2817 42.5027 32.538 42.9589 32.9942C43.415 33.4503 43.6713 34.069 43.6713 34.7141Z" fill="#808080"/>
<path d="M43.3102 37.4318C42.7138 37.8865 41.981 38.1259 41.2312 38.1113C40.5152 38.1185 39.8154 37.8993 39.2314 37.4851C38.6475 37.0708 38.2093 36.4827 37.9795 35.8046C37.7497 35.1266 37.7401 34.3932 37.9519 33.7093C38.1636 33.0254 38.5861 32.4259 39.1589 31.9964C39.7559 31.5427 40.4883 31.3034 41.238 31.317C41.9539 31.3097 42.6538 31.5289 43.2377 31.9431C43.8216 32.3574 44.2598 32.9455 44.4896 33.6236C44.7194 34.3017 44.7291 35.035 44.5173 35.7189C44.3055 36.4028 43.883 37.0023 43.3102 37.4318ZM40.3479 33.5591C40.1036 33.7429 39.9234 33.9991 39.833 34.2912C39.7427 34.5833 39.7467 34.8964 39.8445 35.1861C39.9423 35.4758 40.129 35.7272 40.3779 35.9048C40.6268 36.0823 40.9254 36.1768 41.2312 36.1749C41.6169 36.1696 41.9854 36.014 42.2583 35.7412C42.5311 35.4684 42.6867 35.0999 42.6919 34.7141C42.6904 34.4428 42.6133 34.1773 42.4693 33.9474C42.3254 33.7174 42.1202 33.5321 41.8769 33.4122C41.6335 33.2923 41.3616 33.2425 41.0915 33.2685C40.8215 33.2944 40.564 33.395 40.3479 33.5591Z" fill="white"/>
<path d="M54.6908 34.7141C54.6908 35.1968 54.5476 35.6686 54.2793 36.0699C54.0109 36.4712 53.6296 36.7838 53.1835 36.9682C52.7374 37.1526 52.2466 37.2005 51.7733 37.1059C51.3 37.0112 50.8654 36.7782 50.5245 36.4364C50.1837 36.0946 49.9519 35.6593 49.8585 35.1857C49.7652 34.7122 49.8145 34.2215 50.0001 33.7759C50.1858 33.3303 50.4995 32.9499 50.9015 32.6827C51.3035 32.4155 51.7757 32.2736 52.2585 32.2749C52.5784 32.2749 52.8953 32.3381 53.1909 32.4607C53.4864 32.5834 53.7548 32.7631 53.9808 32.9897C54.2068 33.2163 54.3858 33.4853 54.5076 33.7812C54.6295 34.0771 54.6917 34.3941 54.6908 34.7141Z" fill="#808080"/>
<path d="M54.3512 37.4318C53.7547 37.8864 53.022 38.1259 52.2722 38.1112C51.3712 38.1112 50.5071 37.7533 49.87 37.1162C49.2329 36.4791 48.875 35.615 48.875 34.7141C48.875 33.8131 49.2329 32.949 49.87 32.3119C50.5071 31.6748 51.3712 31.3169 52.2722 31.3169C52.9852 31.3169 53.6801 31.5412 54.2585 31.9581C54.8369 32.375 55.2695 32.9634 55.495 33.6398C55.7205 34.3162 55.7274 35.0464 55.5148 35.727C55.3022 36.4075 54.8809 37.004 54.3104 37.4318H54.3512ZM51.3889 33.5726C51.146 33.7578 50.9672 34.0144 50.8777 34.3064C50.7882 34.5985 50.7925 34.9112 50.89 35.2007C50.9875 35.4901 51.1732 35.7418 51.4212 35.9202C51.6691 36.0986 51.9667 36.1948 52.2722 36.1952C52.6609 36.1881 53.0314 36.0291 53.3044 35.7523C53.5774 35.4755 53.7312 35.1028 53.7329 34.7141C53.7326 34.4422 53.6565 34.1758 53.513 33.9449C53.3695 33.7139 53.1645 33.5276 52.9209 33.4069C52.6773 33.2862 52.4048 33.2358 52.1342 33.2615C51.8635 33.2871 51.6054 33.3878 51.3889 33.5522V33.5726Z" fill="white"/>
<path d="M65.7524 34.7551C65.7511 35.2359 65.6073 35.7055 65.3392 36.1046C65.0711 36.5037 64.6907 36.8144 64.2462 36.9974C63.8016 37.1805 63.3128 37.2277 62.8414 37.1331C62.37 37.0385 61.9372 36.8063 61.5977 36.4658C61.2582 36.1254 61.0272 35.692 60.9339 35.2203C60.8406 34.7487 60.8892 34.26 61.0735 33.8159C61.2578 33.3718 61.5696 32.9924 61.9694 32.7254C62.3693 32.4584 62.8393 32.3159 63.3201 32.3159C63.64 32.3159 63.9569 32.3791 64.2524 32.5017C64.548 32.6244 64.8164 32.8042 65.0424 33.0307C65.2684 33.2573 65.4474 33.5263 65.5692 33.8222C65.6911 34.1181 65.7533 34.4351 65.7524 34.7551Z" fill="#808080"/>
<path d="M65.3925 37.4318C64.9619 37.7547 64.4606 37.9708 63.9301 38.062C63.3997 38.1533 62.8551 38.1172 62.3413 37.9567C61.8275 37.7962 61.3592 37.5159 60.9749 37.1389C60.5907 36.7619 60.3016 36.299 60.1314 35.7883C59.9611 35.2777 59.9147 34.7339 59.9959 34.2017C60.0771 33.6696 60.2835 33.1644 60.5983 32.7277C60.913 32.291 61.327 31.9354 61.8062 31.6901C62.2853 31.4448 62.8159 31.3169 63.3542 31.3169C64.0672 31.3169 64.7621 31.5412 65.3405 31.9581C65.919 32.375 66.3515 32.9634 66.577 33.6398C66.8025 34.3162 66.8094 35.0464 66.5968 35.727C66.3842 36.4075 65.9629 37.004 65.3925 37.4318ZM62.4302 33.5862C62.2522 33.723 62.1081 33.8989 62.0091 34.1004C61.9101 34.3019 61.8589 34.5235 61.8594 34.748C61.8612 35.1331 62.015 35.5019 62.2873 35.7742C62.5596 36.0465 62.9284 36.2002 63.3134 36.202C63.6987 36.1968 64.0669 36.0424 64.3407 35.7712C64.6144 35.5 64.7722 35.1332 64.781 34.748C64.7792 34.3612 64.6247 33.9906 64.3512 33.7171C64.0776 33.4435 63.7071 33.289 63.3202 33.2872C62.9991 33.2887 62.687 33.3935 62.4302 33.5862Z" fill="white"/>
<path d="M42.8899 33.6066C42.8899 33.8234 42.8472 34.0381 42.7642 34.2384C42.6812 34.4387 42.5596 34.6207 42.4063 34.774C42.253 34.9273 42.071 35.0489 41.8707 35.1319C41.6704 35.2149 41.4557 35.2576 41.2389 35.2576C40.7992 35.2576 40.3775 35.0829 40.0666 34.772C39.7557 34.4611 39.5811 34.0394 39.5811 33.5998V28.8913C39.581 28.6733 39.6242 28.4575 39.708 28.2563C39.7918 28.0551 39.9147 27.8725 40.0694 27.719C40.2242 27.5655 40.4078 27.4442 40.6097 27.362C40.8116 27.2799 41.0277 27.2385 41.2457 27.2403C41.463 27.2403 41.6783 27.2832 41.8791 27.3666C42.0798 27.45 42.2621 27.5722 42.4155 27.7263C42.5689 27.8803 42.6904 28.0631 42.773 28.2642C42.8555 28.4653 42.8976 28.6807 42.8967 28.8981L42.8899 33.6066Z" fill="#320DA5"/>
<path d="M53.9299 33.6202C53.9299 33.8375 53.887 34.0528 53.8036 34.2535C53.7202 34.4543 53.598 34.6366 53.444 34.79C53.2899 34.9434 53.1071 35.0649 52.906 35.1474C52.7049 35.23 52.4895 35.2721 52.2721 35.2712C52.0542 35.2721 51.8382 35.2298 51.6366 35.1468C51.4351 35.0638 51.252 34.9417 51.0979 34.7876C50.9438 34.6335 50.8217 34.4504 50.7387 34.2488C50.6557 34.0473 50.6134 33.8313 50.6143 33.6134V28.9117C50.6125 28.6917 50.6545 28.4735 50.7379 28.2699C50.8212 28.0663 50.9443 27.8814 51.0998 27.7258C51.2554 27.5702 51.4404 27.4472 51.644 27.3638C51.8476 27.2805 52.0657 27.2385 52.2857 27.2403C52.7242 27.2421 53.1441 27.4175 53.4536 27.7282C53.763 28.039 53.9367 28.4596 53.9367 28.8981L53.9299 33.6202Z" fill="#320DA5"/>
<path d="M64.9712 33.6337C64.9712 34.0716 64.7973 34.4915 64.4876 34.8011C64.178 35.1108 63.7581 35.2847 63.3202 35.2847C63.1031 35.2856 62.888 35.2435 62.6873 35.1609C62.4866 35.0782 62.3042 34.9566 62.1507 34.8031C61.9972 34.6496 61.8757 34.4673 61.793 34.2666C61.7104 34.0658 61.6683 33.8507 61.6692 33.6337V28.9252C61.6656 28.7052 61.7058 28.4867 61.7875 28.2825C61.8692 28.0782 61.9907 27.8922 62.145 27.7354C62.2993 27.5785 62.4833 27.454 62.6862 27.369C62.8891 27.284 63.107 27.2402 63.327 27.2402C63.5444 27.2402 63.7596 27.2832 63.9604 27.3666C64.1611 27.45 64.3434 27.5722 64.4968 27.7262C64.6502 27.8802 64.7717 28.063 64.8543 28.2641C64.9368 28.4652 64.9789 28.6807 64.978 28.898L64.9712 33.6337Z" fill="#320DA5"/>
<path d="M46.1181 63.3981C45.3791 63.3981 44.7496 63.197 44.2297 62.7948C43.7098 62.3893 43.3125 61.8023 43.0378 61.0339C42.7631 60.2622 42.6258 59.3303 42.6258 58.2381C42.6258 57.1525 42.7631 56.2255 43.0378 55.457C43.3157 54.6853 43.7147 54.0967 44.2346 53.6913C44.7578 53.2825 45.3856 53.0781 46.1181 53.0781C46.8505 53.0781 47.4767 53.2825 47.9967 53.6913C48.5199 54.0967 48.9188 54.6853 49.1935 55.457C49.4714 56.2255 49.6104 57.1525 49.6104 58.2381C49.6104 59.3303 49.473 60.2622 49.1984 61.0339C48.9237 61.8023 48.5264 62.3893 48.0065 62.7948C47.4865 63.197 46.8571 63.3981 46.1181 63.3981ZM46.1181 62.319C46.8505 62.319 47.4195 61.9658 47.825 61.2595C48.2305 60.5532 48.4332 59.5461 48.4332 58.2381C48.4332 57.3683 48.34 56.6277 48.1536 56.0162C47.9705 55.4047 47.7056 54.9387 47.359 54.6183C47.0157 54.2978 46.602 54.1376 46.1181 54.1376C45.3922 54.1376 44.8248 54.4957 44.4161 55.2118C44.0073 55.9246 43.803 56.9334 43.803 58.2381C43.803 59.1079 43.8945 59.8469 44.0776 60.4551C44.2608 61.0633 44.524 61.526 44.8673 61.8432C45.2139 62.1604 45.6309 62.319 46.1181 62.319ZM55.0058 53.2155V63.2607H53.7894V54.4908H53.7305L51.278 56.1192V54.8832L53.7894 53.2155H55.0058Z" fill="#004358"/>
<defs>
<linearGradient id="paint0_linear_886_769" x1="52.0651" y1="0.741211" x2="52.0651" y2="104.871" gradientUnits="userSpaceOnUse">
<stop stop-color="#B7A8FF"/>
<stop offset="1" stop-color="#270AAD"/>
</linearGradient>
<linearGradient id="paint1_linear_886_769" x1="52.4381" y1="0.741211" x2="52.4381" y2="104.871" gradientUnits="userSpaceOnUse">
<stop stop-color="#B7A8FF"/>
<stop offset="1" stop-color="#270AAD"/>
</linearGradient>
</defs>
</svg>
