<svg width="98" height="98" viewBox="0 0 98 98" fill="none" xmlns="http://www.w3.org/2000/svg">
<circle cx="48.8759" cy="48.7059" r="48.7059" fill="url(#paint0_linear_823_2191)"/>
<mask id="mask0_823_2191" style="mask-type:alpha" maskUnits="userSpaceOnUse" x="0" y="0" width="98" height="98">
<circle cx="49.2255" cy="48.7059" r="48.7059" fill="url(#paint1_linear_823_2191)"/>
</mask>
<g mask="url(#mask0_823_2191)">
<path d="M120.451 81.1768L71.3958 34.042L52.5419 56.9111L38.9252 73.321L20.0713 76.1141L76.8076 114.171L120.451 81.1768Z" fill="black" fill-opacity="0.2" style="mix-blend-mode:multiply"/>
</g>
<path d="M48.9282 78.5578C65.3907 78.5578 78.7363 77.228 78.7363 75.5876C78.7363 73.9471 65.3907 72.6173 48.9282 72.6173C32.4656 72.6173 19.1201 73.9471 19.1201 75.5876C19.1201 77.228 32.4656 78.5578 48.9282 78.5578Z" fill="#CDCEC8"/>
<path d="M49.3604 33.9302L28.5996 51.0942V75.133H70.1211V51.0942L49.3604 33.9302Z" fill="#EEF2D6"/>
<path d="M67.9592 59.1528H56.2812V66.6649H67.9592V59.1528Z" fill="#8E6D39"/>
<path d="M67.4465 59.5854H56.793V66.187H67.4465V59.5854Z" fill="#AF8B4A"/>
<path d="M62.2564 59.5854H61.8467V66.187H62.2564V59.5854Z" fill="#8E6D39"/>
<path d="M61.2663 60.109H57.3281V65.6407H61.2663V60.109Z" fill="#B7CECD"/>
<path d="M66.861 60.1089H62.9229V65.6405H66.861V60.1089Z" fill="#B7CECD"/>
<path d="M42.3723 59.1191H30.6943V66.6313H42.3723V59.1191Z" fill="#8E6D39"/>
<path d="M41.8596 59.5516H31.2061V66.1532H41.8596V59.5516Z" fill="#AF8B4A"/>
<path d="M36.6695 59.5516H36.2598V66.1532H36.6695V59.5516Z" fill="#8E6D39"/>
<path d="M35.6794 60.0752H31.7412V65.6068H35.6794V60.0752Z" fill="#B7CECD"/>
<path d="M41.2741 60.0752H37.3359V65.6068H41.2741V60.0752Z" fill="#B7CECD"/>
<path d="M54.2774 59.1528H44.4434V75.1332H54.2774V59.1528Z" fill="#250882"/>
<path d="M53.7998 59.6992H44.9219V75.1332H53.7998V59.6992Z" fill="#320DA5"/>
<path d="M52.8267 60.6553H45.8955V65.7772H52.8267V60.6553Z" fill="#B7CECD"/>
<path d="M46.6741 68.1012C46.6741 68.1781 46.6513 68.2533 46.6086 68.3172C46.5659 68.3812 46.5051 68.431 46.4341 68.4604C46.363 68.4899 46.2849 68.4976 46.2094 68.4825C46.134 68.4675 46.0647 68.4305 46.0104 68.3761C45.956 68.3218 45.919 68.2525 45.904 68.1771C45.889 68.1016 45.8967 68.0235 45.9261 67.9524C45.9555 67.8814 46.0053 67.8206 46.0693 67.7779C46.1332 67.7352 46.2084 67.7124 46.2853 67.7124C46.3884 67.7124 46.4873 67.7534 46.5602 67.8263C46.6331 67.8992 46.6741 67.9981 46.6741 68.1012Z" fill="#EEF2D6"/>
<path d="M70.5317 33.8394H28.188L22.7246 51.0945H75.9951L70.5317 33.8394Z" fill="#F54208"/>
<path d="M28.5996 51.0942H70.1211V53.621L28.5996 56.421V51.0942Z" fill="#CDCEC8"/>
<path d="M59.064 37.5269H39.6582V40.1219H59.064V37.5269Z" fill="#A03535"/>
<path d="M49.3611 39.1597C54.7199 39.1597 59.064 34.8156 59.064 29.4568C59.064 24.0981 54.7199 19.7539 49.3611 19.7539C44.0023 19.7539 39.6582 24.0981 39.6582 29.4568C39.6582 34.8156 44.0023 39.1597 49.3611 39.1597Z" fill="#E5B848"/>
<path d="M49.3611 37.9669C54.7199 37.9669 59.064 33.6227 59.064 28.264C59.064 22.9052 54.7199 18.561 49.3611 18.561C44.0023 18.561 39.6582 22.9052 39.6582 28.264C39.6582 33.6227 44.0023 37.9669 49.3611 37.9669Z" fill="#F7E88D"/>
<path d="M50.1595 21.5787V22.7569H50.1878C50.7046 22.7671 51.2179 22.8445 51.7148 22.9873C52.462 23.1876 52.836 23.4432 52.8366 23.754C52.8366 24.1631 52.6299 24.3677 52.2165 24.3677C51.8861 24.347 51.5582 24.2967 51.2367 24.2175C50.8837 24.1321 50.5226 24.0842 50.1595 24.0745V26.9127C51.1867 27.0056 51.9907 27.3425 52.5716 27.9234C52.8294 28.1787 53.0327 28.4835 53.1693 28.8195C53.306 29.1555 53.373 29.5157 53.3665 29.8784C53.3665 30.8126 53.0436 31.5866 52.3977 32.2003C51.8259 32.7394 51.0798 33.0951 50.1595 33.2675V35.1214C50.1623 35.2045 50.148 35.2874 50.1175 35.3648C50.0869 35.4421 50.0408 35.5124 49.982 35.5712C49.9232 35.6301 49.8529 35.6762 49.7755 35.7067C49.6981 35.7373 49.6153 35.7516 49.5322 35.7488C49.123 35.7488 48.9184 35.5445 48.9184 35.136V33.3549C46.6506 33.3221 45.5166 32.7342 45.5166 31.5912C45.5166 31.1723 45.7093 30.9632 46.0948 30.9638C46.3285 30.9695 46.5519 31.0613 46.7222 31.2215C46.9294 31.412 47.1562 31.5802 47.3987 31.7232C47.7702 31.9102 48.2768 32.0173 48.9184 32.0446V28.091H48.8602C48.2017 28.0806 47.5575 27.8979 46.9917 27.561C46.341 27.1616 46.0156 26.6062 46.0156 25.8947C46.0156 25.2579 46.313 24.6582 46.9079 24.0954C47.4765 23.5637 48.163 23.1743 48.9112 22.9591V21.6205C48.9084 21.5362 48.9232 21.4522 48.9545 21.3738C48.9859 21.2955 49.0331 21.2245 49.0933 21.1653C49.1531 21.106 49.2243 21.0594 49.3025 21.0281C49.3807 20.9968 49.4643 20.9815 49.5486 20.9831C49.9565 20.985 50.1601 21.1835 50.1595 21.5787ZM48.9184 26.8007V24.2976C47.9933 24.6466 47.5308 25.186 47.5308 25.9156C47.5308 26.3667 47.9933 26.6617 48.9184 26.8007ZM50.1595 28.2722V31.898C50.6218 31.7488 51.0438 31.4959 51.3933 31.1586C51.7612 30.7871 51.9433 30.385 51.9397 29.9522C51.9427 29.1436 51.3493 28.5836 50.1595 28.2722Z" fill="#C99D3A"/>
<defs>
<linearGradient id="paint0_linear_823_2191" x1="48.8759" y1="0" x2="48.8759" y2="97.4119" gradientUnits="userSpaceOnUse">
<stop stop-color="#B7A8FF"/>
<stop offset="1" stop-color="#270AAD"/>
</linearGradient>
<linearGradient id="paint1_linear_823_2191" x1="49.2255" y1="0" x2="49.2255" y2="97.4119" gradientUnits="userSpaceOnUse">
<stop stop-color="#B7A8FF"/>
<stop offset="1" stop-color="#270AAD"/>
</linearGradient>
</defs>
</svg>
