<svg width="97" height="97" viewBox="0 0 97 97" fill="none" xmlns="http://www.w3.org/2000/svg">
<circle cx="48.0788" cy="48.0651" r="48.0651" fill="url(#paint0_linear_726_2884)"/>
<mask id="mask0_726_2884" style="mask-type:alpha" maskUnits="userSpaceOnUse" x="0" y="0" width="97" height="97">
<circle cx="48.4235" cy="48.0651" r="48.0651" fill="url(#paint1_linear_726_2884)"/>
</mask>
<g mask="url(#mask0_726_2884)">
<path d="M118.712 80.1084L69.0965 33.5938L51.6966 56.162L38.259 72.3559L28.0947 77.0074L75.643 112.669L118.712 80.1084Z" fill="black" fill-opacity="0.2" style="mix-blend-mode:multiply"/>
</g>
<path d="M69.7346 75.0764C69.7285 75.4046 69.6577 75.7283 69.5262 76.0291C69.3948 76.3299 69.2052 76.6018 68.9685 76.8292C68.7318 77.0566 68.4525 77.235 68.1466 77.3543C67.8408 77.4735 67.5145 77.5312 67.1863 77.5241H30.2085C29.8803 77.5312 29.554 77.4735 29.2481 77.3543C28.9423 77.235 28.663 77.0566 28.4263 76.8292C28.1895 76.6018 28 76.3299 27.8685 76.0291C27.7371 75.7283 27.6663 75.4046 27.6602 75.0764V27.9991C27.6663 27.6709 27.7371 27.3471 27.8685 27.0464C28 26.7456 28.1895 26.4737 28.4263 26.2463C28.663 26.0189 28.9423 25.8405 29.2481 25.7212C29.554 25.602 29.8803 25.5443 30.2085 25.5514H67.1863C67.5145 25.5443 67.8408 25.602 68.1466 25.7212C68.4525 25.8405 68.7318 26.0189 68.9685 26.2463C69.2052 26.4737 69.3948 26.7456 69.5262 27.0464C69.6577 27.3471 69.7285 27.6709 69.7346 27.9991V75.0764Z" fill="#320DA5"/>
<path d="M66.8382 26.4766H30.1689V74.8816H66.8382V26.4766Z" fill="white"/>
<g style="mix-blend-mode:multiply">
<path d="M65.8649 28.5488H31.5293V73.8758H65.8649V28.5488Z" fill="#F2F2F2"/>
</g>
<path d="M62.8401 23.0498H62.7731C61.9546 23.0498 61.291 23.7133 61.291 24.5319V26.8455C61.291 27.664 61.9546 28.3276 62.7731 28.3276H62.8401C63.6587 28.3276 64.3222 27.664 64.3222 26.8455V24.5319C64.3222 23.7133 63.6587 23.0498 62.8401 23.0498Z" fill="#F4655F"/>
<path d="M57.0403 23.0498H56.9733C56.1548 23.0498 55.4912 23.7133 55.4912 24.5319V26.8455C55.4912 27.664 56.1548 28.3276 56.9733 28.3276H57.0403C57.8589 28.3276 58.5224 27.664 58.5224 26.8455V24.5319C58.5224 23.7133 57.8589 23.0498 57.0403 23.0498Z" fill="#F4655F"/>
<path d="M51.3665 23.0498H51.2994C50.4809 23.0498 49.8174 23.7133 49.8174 24.5319V26.8455C49.8174 27.664 50.4809 28.3276 51.2994 28.3276H51.3665C52.185 28.3276 52.8486 27.664 52.8486 26.8455V24.5319C52.8486 23.7133 52.185 23.0498 51.3665 23.0498Z" fill="#F4655F"/>
<path d="M45.5657 23.0498H45.4987C44.6801 23.0498 44.0166 23.7133 44.0166 24.5319V26.8455C44.0166 27.664 44.6801 28.3276 45.4987 28.3276H45.5657C46.3842 28.3276 47.0478 27.664 47.0478 26.8455V24.5319C47.0478 23.7133 46.3842 23.0498 45.5657 23.0498Z" fill="#F4655F"/>
<path d="M39.7581 23.0498H39.691C38.8725 23.0498 38.209 23.7133 38.209 24.5319V26.8455C38.209 27.664 38.8725 28.3276 39.691 28.3276H39.7581C40.5766 28.3276 41.2402 27.664 41.2402 26.8455V24.5319C41.2402 23.7133 40.5766 23.0498 39.7581 23.0498Z" fill="#F4655F"/>
<path d="M34.0911 23.0498H34.0241C33.2055 23.0498 32.542 23.7133 32.542 24.5319V26.8455C32.542 27.664 33.2055 28.3276 34.0241 28.3276H34.0911C34.9096 28.3276 35.5732 27.664 35.5732 26.8455V24.5319C35.5732 23.7133 34.9096 23.0498 34.0911 23.0498Z" fill="#F4655F"/>
<path d="M64.3292 67.4983C64.3275 67.6383 64.2711 67.772 64.1721 67.871C64.0732 67.97 63.9394 68.0264 63.7994 68.0281H33.0651C32.9258 68.0263 32.7927 67.9697 32.6948 67.8706C32.5969 67.7714 32.542 67.6377 32.542 67.4983C32.5411 67.429 32.554 67.3603 32.5799 67.2961C32.6058 67.2318 32.6442 67.1734 32.6928 67.1241C32.7415 67.0748 32.7995 67.0357 32.8634 67.009C32.9273 66.9823 32.9959 66.9685 33.0651 66.9685H63.7994C63.94 66.9685 64.0747 67.0243 64.1741 67.1237C64.2734 67.223 64.3292 67.3578 64.3292 67.4983Z" fill="#CCCCCC"/>
<path d="M64.3292 60.6377C64.3292 60.7782 64.2734 60.913 64.1741 61.0123C64.0747 61.1117 63.94 61.1675 63.7994 61.1675H33.0651C32.9959 61.1675 32.9273 61.1537 32.8634 61.127C32.7995 61.1003 32.7415 61.0612 32.6928 61.0119C32.6442 60.9626 32.6058 60.9042 32.5799 60.8399C32.554 60.7757 32.5411 60.7069 32.542 60.6377C32.542 60.4983 32.5969 60.3646 32.6948 60.2654C32.7927 60.1663 32.9258 60.1097 33.0651 60.1079H63.7994C63.9394 60.1096 64.0732 60.166 64.1721 60.265C64.2711 60.364 64.3275 60.4977 64.3292 60.6377Z" fill="#CCCCCC"/>
<path d="M64.3292 53.898C64.3292 54.0385 64.2734 54.1732 64.1741 54.2726C64.0747 54.3719 63.94 54.4277 63.7994 54.4277H33.0651C32.9959 54.4278 32.9273 54.414 32.8634 54.3873C32.7995 54.3606 32.7415 54.3215 32.6928 54.2722C32.6442 54.2229 32.6058 54.1644 32.5799 54.1002C32.554 54.036 32.5411 53.9672 32.542 53.898C32.542 53.7586 32.5969 53.6249 32.6948 53.5257C32.7927 53.4265 32.9258 53.3699 33.0651 53.3682H63.7994C63.9394 53.3699 64.0732 53.4263 64.1721 53.5253C64.2711 53.6242 64.3275 53.758 64.3292 53.898Z" fill="#CCCCCC"/>
<path d="M64.3292 47.0512C64.3292 47.1917 64.2734 47.3264 64.1741 47.4258C64.0747 47.5251 63.94 47.5809 63.7994 47.5809H33.0651C32.9959 47.5809 32.9273 47.5672 32.8634 47.5405C32.7995 47.5138 32.7415 47.4747 32.6928 47.4254C32.6442 47.3761 32.6058 47.3176 32.5799 47.2534C32.554 47.1891 32.5411 47.1204 32.542 47.0512C32.542 46.9124 32.5971 46.7794 32.6952 46.6813C32.7933 46.5832 32.9264 46.5281 33.0651 46.5281H63.7994C63.9388 46.5281 64.0726 46.583 64.1717 46.6809C64.2709 46.7788 64.3275 46.9118 64.3292 47.0512Z" fill="#CCCCCC"/>
<path d="M64.3292 40.4858C64.3275 40.6258 64.2711 40.7596 64.1721 40.8585C64.0732 40.9575 63.9394 41.0139 63.7994 41.0156H33.0651C32.9258 41.0139 32.7927 40.9573 32.6948 40.8581C32.5969 40.759 32.542 40.6252 32.542 40.4858C32.5411 40.4166 32.554 40.3478 32.5799 40.2836C32.6058 40.2194 32.6442 40.1609 32.6928 40.1116C32.7415 40.0623 32.7995 40.0232 32.8634 39.9965C32.9273 39.9698 32.9959 39.956 33.0651 39.9561H63.7994C63.94 39.9561 64.0747 40.0119 64.1741 40.1112C64.2734 40.2106 64.3292 40.3453 64.3292 40.4858Z" fill="#CCCCCC"/>
<path d="M64.3292 33.7327C64.3275 33.872 64.2709 34.005 64.1717 34.1029C64.0726 34.2008 63.9388 34.2557 63.7994 34.2557H33.0651C32.9264 34.2557 32.7933 34.2006 32.6952 34.1025C32.5971 34.0044 32.542 33.8714 32.542 33.7327C32.5411 33.6634 32.554 33.5947 32.5799 33.5304C32.6058 33.4662 32.6442 33.4077 32.6928 33.3584C32.7415 33.3092 32.7995 33.27 32.8634 33.2433C32.9273 33.2166 32.9959 33.2029 33.0651 33.2029H63.7994C63.94 33.2029 64.0747 33.2587 64.1741 33.3581C64.2734 33.4574 64.3292 33.5921 64.3292 33.7327Z" fill="#CCCCCC"/>
<defs>
<linearGradient id="paint0_linear_726_2884" x1="48.0788" y1="0" x2="48.0788" y2="96.1302" gradientUnits="userSpaceOnUse">
<stop stop-color="#FFC2AE"/>
<stop offset="1" stop-color="#F54208"/>
</linearGradient>
<linearGradient id="paint1_linear_726_2884" x1="48.4235" y1="0" x2="48.4235" y2="96.1302" gradientUnits="userSpaceOnUse">
<stop stop-color="#B7A8FF"/>
<stop offset="1" stop-color="#270AAD"/>
</linearGradient>
</defs>
</svg>
