<svg width="101" height="100" viewBox="0 0 101 100" fill="none" xmlns="http://www.w3.org/2000/svg">
<circle cx="50.0733" cy="49.8702" r="49.7403" fill="url(#paint0_linear_730_3258)"/>
<mask id="mask0_730_3258" style="mask-type:alpha" maskUnits="userSpaceOnUse" x="0" y="0" width="101" height="100">
<circle cx="50.4297" cy="49.8702" r="49.7403" fill="url(#paint1_linear_730_3258)"/>
</mask>
<g mask="url(#mask0_730_3258)">
<path d="M123.168 83.0303L73.071 34.8945L53.8167 58.2493L45.6158 64.1325L33.3145 70.9072L81.8068 116.547L123.168 83.0303Z" fill="black" fill-opacity="0.2" style="mix-blend-mode:multiply"/>
</g>
<path d="M64.2808 26.8721H36.3394C29.4506 26.8721 23.8662 32.4565 23.8662 39.3453V51.8042C23.8662 58.6929 29.4506 64.2773 36.3394 64.2773H64.2808C71.1695 64.2773 76.754 58.6929 76.754 51.8042V39.3453C76.754 32.4565 71.1695 26.8721 64.2808 26.8721Z" fill="#F54208"/>
<g style="mix-blend-mode:soft-light" opacity="0.4">
<path d="M71.4215 36.4646C71.4215 37.6134 70.9651 38.7152 70.1528 39.5275C69.3405 40.3399 68.2387 40.7962 67.0899 40.7962H38.1478C37.5793 40.7962 37.0163 40.6841 36.4912 40.4664C35.9661 40.2486 35.489 39.9294 35.0873 39.5271C34.6857 39.1248 34.3673 38.6472 34.1504 38.1217C33.9335 37.5962 33.8223 37.0331 33.8232 36.4646C33.8327 35.3238 34.2925 34.233 35.1024 33.4297C35.9124 32.6265 37.007 32.1757 38.1478 32.1758H67.0899C68.2319 32.1739 69.3283 32.6237 70.1398 33.4272C70.9513 34.2307 71.4121 35.3226 71.4215 36.4646Z" fill="white"/>
</g>
<path d="M64.781 39.4169C64.781 39.7758 64.6389 40.1202 64.3857 40.3747C64.1326 40.6292 63.7889 40.7731 63.43 40.775H37.1898C36.8309 40.7731 36.4873 40.6292 36.2341 40.3747C35.981 40.1202 35.8389 39.7758 35.8389 39.4169C35.8389 39.0586 35.9812 38.715 36.2346 38.4616C36.4879 38.2082 36.8315 38.0659 37.1898 38.0659H63.43C63.7883 38.0659 64.1319 38.2082 64.3853 38.4616C64.6386 38.715 64.781 39.0586 64.781 39.4169Z" fill="white"/>
<path d="M64.781 45.5712C64.781 45.9301 64.6389 46.2745 64.3857 46.529C64.1326 46.7835 63.7889 46.9274 63.43 46.9293H37.1898C36.8309 46.9274 36.4873 46.7835 36.2341 46.529C35.981 46.2745 35.8389 45.9301 35.8389 45.5712C35.8389 45.2129 35.9812 44.8693 36.2346 44.6159C36.4879 44.3625 36.8315 44.2202 37.1898 44.2202H63.43C63.7883 44.2202 64.1319 44.3625 64.3853 44.6159C64.6386 44.8693 64.781 45.2129 64.781 45.5712Z" fill="white"/>
<path d="M64.781 51.704C64.781 52.0623 64.6386 52.4059 64.3853 52.6593C64.1319 52.9126 63.7883 53.055 63.43 53.055H37.1898C36.8315 53.055 36.4879 52.9126 36.2346 52.6593C35.9812 52.4059 35.8389 52.0623 35.8389 51.704C35.8389 51.3457 35.9812 51.0021 36.2346 50.7487C36.4879 50.4954 36.8315 50.353 37.1898 50.353H63.43C63.7883 50.353 64.1319 50.4954 64.3853 50.7487C64.6386 51.0021 64.781 51.3457 64.781 51.704Z" fill="white"/>
<path d="M35.8897 61.897L33.874 72.283L46.5831 64.0128L35.8897 61.897Z" fill="#F54208"/>
<g style="mix-blend-mode:multiply">
<path d="M65.7527 58.6449H41.1065C38.1889 58.6449 35.3909 57.4859 33.3278 55.4229C31.2648 53.3599 30.1058 50.5618 30.1058 47.6442V36.6435C30.1039 34.6266 30.658 32.6482 31.7071 30.9257C32.7563 29.2031 34.26 27.8031 36.0529 26.8794C32.8027 26.9614 29.7132 28.3099 27.4432 30.6374C25.1731 32.9649 23.9022 36.0871 23.9014 39.3383V51.8043C23.9022 54.956 25.096 57.9905 27.2429 60.2978C29.3898 62.6051 32.3305 64.0142 35.4739 64.2418L33.8227 72.5477L46.5318 64.2775H64.2802C65.9182 64.2775 67.5402 63.9549 69.0535 63.3281C70.5668 62.7012 71.9418 61.7825 73.1001 60.6242C74.2583 59.466 75.1771 58.0909 75.8039 56.5776C76.4308 55.0643 76.7534 53.4423 76.7534 51.8043V47.6442C76.7534 49.0889 76.4688 50.5193 75.916 51.854C75.3632 53.1887 74.5529 54.4014 73.5314 55.4229C72.5098 56.4444 71.2971 57.2547 69.9625 57.8076C68.6278 58.3604 67.1973 58.6449 65.7527 58.6449Z" fill="#CDA5B9"/>
</g>
<defs>
<linearGradient id="paint0_linear_730_3258" x1="50.0733" y1="0.129883" x2="50.0733" y2="99.6104" gradientUnits="userSpaceOnUse">
<stop stop-color="#B7A8FF"/>
<stop offset="1" stop-color="#270AAD"/>
</linearGradient>
<linearGradient id="paint1_linear_730_3258" x1="50.4297" y1="0.129883" x2="50.4297" y2="99.6104" gradientUnits="userSpaceOnUse">
<stop stop-color="#B7A8FF"/>
<stop offset="1" stop-color="#270AAD"/>
</linearGradient>
</defs>
</svg>
